<svg width="114" height="105" viewBox="0 0 114 105" fill="none" xmlns="http://www.w3.org/2000/svg">
<rect width="114" height="105" fill="#F5F5F5"/>
<g id="Home" clip-path="url(#clip0_0_1)">
<rect width="1440" height="6875" transform="translate(-485 -2940)" fill="#00251A"/>
<g id="Group 1000001759">
<g id="iconoir:brain-research">
<g id="Group">
<path id="Vector" d="M33.25 61.25C31.1766 61.2528 29.1288 61.6724 27.2495 62.4794C25.3703 63.2864 23.7049 64.4615 22.3696 65.9225C21.0343 67.3835 20.0613 69.0953 19.5184 70.9384C18.9755 72.7816 18.8758 74.7116 19.2264 76.5939C19.5769 78.4761 20.3692 80.2653 21.5479 81.8364C22.7266 83.4075 24.2634 84.7228 26.051 85.6905C27.8386 86.6581 29.8339 87.2548 31.8977 87.4389C33.9615 87.623 36.0441 87.39 38 86.7562" stroke="white" stroke-width="3" stroke-linecap="round" stroke-linejoin="round"/>
<path id="Vector_2" d="M20.254 68.2718C17.4114 67.0113 14.9543 65.1188 13.1045 62.7649C11.2547 60.411 10.0704 57.67 9.65841 54.7891C9.24646 51.9082 9.61984 48.9781 10.7449 46.2634C11.8699 43.5487 13.7111 41.1347 16.1025 39.2393M16.245 38.8849C14.6872 36.7379 14.0044 34.1524 14.3175 31.5862C14.6306 29.0201 15.9194 26.6387 17.9558 24.8637C19.9921 23.0887 22.6447 22.0346 25.4438 21.8879C28.243 21.7413 31.0082 22.5116 33.25 24.0624M34.3805 24.3468C33.6227 22.8639 33.2365 21.243 33.2503 19.6041C33.2642 17.9652 33.6777 16.3501 34.4604 14.8782C35.2431 13.4063 36.375 12.1153 37.7723 11.1005C39.1696 10.0857 40.7967 9.3731 42.5332 9.01539C44.2697 8.65768 46.0714 8.664 47.8049 9.03388C49.5384 9.40376 51.1595 10.1277 52.5484 11.1523C53.9373 12.1769 55.0584 13.4758 55.829 14.9532C56.5995 16.4305 56.9997 18.0485 57 19.6874M57 19.6874V87.4999M57 19.6874C57.0002 18.0485 57.4004 16.4305 58.171 14.9532C58.9415 13.4758 60.0626 12.1769 61.4515 11.1523C62.8404 10.1277 64.4615 9.40376 66.195 9.03388C67.9286 8.664 69.7302 8.65768 71.4667 9.01539C73.2033 9.3731 74.8303 10.0857 76.2276 11.1005C77.625 12.1153 78.7568 13.4063 79.5395 14.8782C80.3222 16.3501 80.7358 17.9652 80.7496 19.6041C80.7634 21.243 80.3772 22.8639 79.6194 24.3468M57 87.4999C57 89.8206 55.9991 92.0462 54.2175 93.6871C52.4359 95.3281 50.0195 96.2499 47.5 96.2499C44.9804 96.2499 42.564 95.3281 40.7824 93.6871C39.0008 92.0462 38 89.8206 38 87.4999M57 87.4999C57 89.8206 58.0008 92.0462 59.7824 93.6871C61.564 95.3281 63.9804 96.2499 66.5 96.2499M57 30.6249C57 34.1059 58.5013 37.4443 61.1737 39.9057C63.8461 42.3671 67.4706 43.7499 71.25 43.7499M97.8975 39.2393C99.9713 40.8802 101.635 42.9149 102.775 45.2039C103.914 47.4928 104.503 49.9818 104.5 52.4999C104.5 55.5756 103.64 58.4674 102.125 60.9787M97.755 38.8849C99.3128 36.7379 99.9955 34.1524 99.6824 31.5862C99.3693 29.0201 98.0805 26.6387 96.0441 24.8637C94.0078 23.0887 91.3552 22.0346 88.5561 21.8879C85.7569 21.7413 82.9917 22.5116 80.75 24.0624M97.375 89.6874L104.5 96.2499M76 80.9374C76 83.8382 77.2511 86.6202 79.4781 88.6714C81.7051 90.7226 84.7255 91.8749 87.875 91.8749C91.0244 91.8749 94.0449 90.7226 96.2719 88.6714C98.4988 86.6202 99.75 83.8382 99.75 80.9374C99.75 78.0366 98.4988 75.2546 96.2719 73.2034C94.0449 71.1523 91.0244 69.9999 87.875 69.9999C84.7255 69.9999 81.7051 71.1523 79.4781 73.2034C77.2511 75.2546 76 78.0366 76 80.9374Z" stroke="white" stroke-width="3" stroke-linecap="round" stroke-linejoin="round"/>
</g>
</g>
</g>
</g>
<defs>
<clipPath id="clip0_0_1">
<rect width="1440" height="6875" fill="white" transform="translate(-485 -2940)"/>
</clipPath>
</defs>
</svg>
