<svg width="94" height="93" viewBox="0 0 94 93" fill="none" xmlns="http://www.w3.org/2000/svg">
<g id="icon-park-outline:concept-sharing">
<g id="Group">
<path id="Vector" d="M55.0924 69.4081H46.6157L29.146 59.8552L7.81165 67.6401L13.6388 79.0882L27.366 73.4007C40.2101 81.0103 48.0269 84.8161 50.8181 84.8161C53.6094 84.8161 65.1491 79.6795 85.4372 69.4081" stroke="white" stroke-width="4" stroke-linecap="round" stroke-linejoin="round"/>
<path id="Vector_2" d="M56.3056 52.0509V43.0566C58.4408 42.1764 61.2417 40.8898 62.8509 39.2932C65.2941 36.869 66.9579 33.7804 67.6319 30.4179C68.306 27.0555 67.96 23.5702 66.6378 20.4029C65.3155 17.2355 63.0764 14.5283 60.2035 12.6237C57.3306 10.719 53.9531 9.70239 50.4979 9.70239C47.0427 9.70239 43.6651 10.719 40.7923 12.6237C37.9194 14.5283 35.6803 17.2355 34.358 20.4029C33.0358 23.5702 32.6898 27.0555 33.3639 30.4179C34.0379 33.7804 35.7017 36.869 38.1449 39.2932C39.754 40.8898 42.5395 42.1764 44.6747 43.0546C44.6863 43.6998 44.6863 46.6986 44.6747 52.049H56.3056V52.0509Z" stroke="white" stroke-width="4" stroke-linejoin="round"/>
<path id="Vector_3" d="M23.3228 40.5182L25.2639 38.5922M77.6729 40.5182L75.7318 38.5922M29.146 9.70236L27.2049 7.77637M71.8497 9.70236L73.7908 7.77637M79.614 23.1843H77.6729M23.3228 23.1843H21.3817" stroke="white" stroke-width="4" stroke-linecap="round"/>
</g>
</g>
</svg>
