<svg width="295" height="295" viewBox="0 0 295 295" fill="none" xmlns="http://www.w3.org/2000/svg">
<path d="M65.4098 189.048C64.991 189.722 64.8033 190.46 64.8466 191.261C64.8627 192.055 65.1075 192.867 65.581 193.698C66.3997 195.136 67.532 196.017 68.9779 196.34C70.4065 196.674 71.9089 196.392 73.4851 195.494C75.1653 194.537 76.2252 193.337 76.6649 191.894C77.0775 190.443 76.83 188.921 75.9225 187.327C75.3011 186.236 74.5011 185.476 73.5227 185.047C72.5344 184.6 71.422 184.5 70.1854 184.745L73.3962 190.383L70.1225 192.248L64.6183 182.582L68.7494 180.23C70.0454 179.928 71.3966 179.904 72.803 180.158C74.1995 180.395 75.5375 180.952 76.8169 181.829C78.0963 182.706 79.1701 183.907 80.0381 185.431C81.064 187.232 81.5916 189.065 81.621 190.929C81.6233 192.786 81.1497 194.512 80.2005 196.108C79.2413 197.687 77.8611 198.989 76.0597 200.015C74.2582 201.041 72.4341 201.563 70.5872 201.583C68.7131 201.595 66.9868 201.121 65.4083 200.162C63.8126 199.213 62.5017 197.838 61.4759 196.036C60.233 193.854 59.7157 191.717 59.924 189.626C60.1224 187.517 61.0188 185.687 62.6133 184.137L65.4098 189.048Z" fill="#019267"/>
<path d="M61.8867 162.087C62.3466 161.955 62.834 161.847 63.3487 161.762L66.5304 172.887C67.505 172.525 68.1812 171.99 68.5588 171.281C68.9118 170.558 68.9705 169.784 68.7348 168.96C68.3841 167.733 67.6227 167.029 66.4508 166.845L64.9545 161.613C66.0853 161.58 67.1737 161.798 68.2198 162.266C69.2603 162.714 70.1709 163.397 70.9515 164.314C71.732 165.231 72.3087 166.342 72.6814 167.645C73.1308 169.216 73.1955 170.711 72.8755 172.13C72.5555 173.548 71.8714 174.78 70.823 175.826C69.7746 176.873 68.4167 177.634 66.7494 178.111C65.082 178.588 63.5296 178.669 62.0921 178.354C60.649 178.021 59.4167 177.337 58.3952 176.302C57.3737 175.267 56.6354 173.954 56.1805 172.364C55.7366 170.811 55.6677 169.338 55.974 167.945C56.2803 166.551 56.9413 165.346 57.9568 164.33C58.9669 163.295 60.2768 162.547 61.8867 162.087ZM62.0318 167.487C61.1885 167.728 60.6 168.208 60.2661 168.925C59.9323 169.643 59.8887 170.433 60.1353 171.295C60.371 172.119 60.8106 172.75 61.4542 173.188C62.0922 173.607 62.8712 173.757 63.7912 173.639L62.0318 167.487Z" fill="#019267"/>
<path d="M65.1434 150.789L69.4463 150.259L69.7644 152.841C69.9911 154.68 69.7228 156.17 68.9593 157.308C68.176 158.449 66.7655 159.145 64.7278 159.396L58.14 160.208L58.3886 162.226L54.1748 162.745L53.9261 160.727L49.8903 161.224L49.2649 156.15L53.3008 155.653L52.8912 152.329L57.1051 151.81L57.5146 155.133L64.1619 154.314C64.6564 154.253 64.9979 154.091 65.1863 153.826C65.3746 153.562 65.4347 153.153 65.3664 152.599L65.1434 150.789Z" fill="#019267"/>
<path d="M51.5933 138.335C51.5133 139.229 51.1895 139.94 50.6217 140.47C50.0359 140.978 49.3559 141.197 48.5816 141.128C47.7874 141.057 47.1571 140.72 46.6907 140.118C46.2062 139.494 46.0039 138.736 46.0839 137.842C46.1621 136.969 46.4941 136.278 47.0799 135.77C47.6476 135.24 48.3286 135.011 49.1227 135.082C49.897 135.151 50.5264 135.498 51.0109 136.122C51.4774 136.724 51.6715 137.462 51.5933 138.335ZM53.5471 135.959L70.1647 137.446L69.7088 142.539L53.0913 141.051L53.5471 135.959Z" fill="#019267"/>
<path d="M56.3539 120.937C56.8358 119.044 57.8375 117.695 59.3589 116.889C60.866 116.059 62.6917 115.917 64.8359 116.463L74.2819 118.867L73.028 123.793L64.2484 121.558C63.1667 121.283 62.2551 121.349 61.5136 121.757C60.7722 122.165 60.281 122.842 60.0401 123.788C59.7991 124.735 59.9068 125.564 60.363 126.277C60.8193 126.99 61.5882 127.484 62.67 127.759L71.4496 129.994L70.1883 134.949L54.02 130.833L55.2812 125.878L57.4254 126.424C56.8385 125.74 56.4504 124.921 56.2611 123.968C56.0525 123.01 56.0834 121.999 56.3539 120.937Z" fill="#019267"/>
<path d="M79.2985 100.589L83.0568 102.751L81.7601 105.006C80.836 106.613 79.7268 107.642 78.4325 108.093C77.1209 108.535 75.5752 108.244 73.7954 107.22L68.0412 103.911L67.0277 105.674L63.3471 103.557L64.3606 101.795L60.8356 99.7678L63.3843 95.3355L66.9094 97.3626L68.5787 94.4596L72.2593 96.5761L70.59 99.4791L76.396 102.818C76.828 103.066 77.1986 103.141 77.5079 103.043C77.8173 102.945 78.111 102.654 78.3893 102.171L79.2985 100.589Z" fill="#019267"/>
<path d="M87.4266 97.7576C86.3889 99.0204 85.1829 99.9386 83.8086 100.512C82.4471 101.07 81.0253 101.231 79.5434 100.993C78.0741 100.741 76.6695 100.064 75.3297 98.9627C74.0052 97.8744 73.0829 96.6263 72.5628 95.2185C72.0272 93.7981 71.9075 92.3582 72.2037 90.8988C72.4999 89.4394 73.1669 88.0783 74.2046 86.8155C75.2423 85.5526 76.4483 84.6344 77.8225 84.0609C79.1968 83.4874 80.6326 83.3256 82.1299 83.5756C83.6118 83.813 85.015 84.4758 86.3395 85.5641C87.6639 86.6525 88.5876 87.9146 89.1105 89.3504C89.6307 90.7582 89.7363 92.1995 89.4275 93.6743C89.1312 95.1336 88.4643 96.4947 87.4266 97.7576ZM84.0076 94.9482C84.6277 94.1936 84.8757 93.3266 84.7515 92.3474C84.64 91.3528 84.0684 90.4316 83.0365 89.5837C82.0047 88.7358 80.9964 88.3459 80.0117 88.414C79.0397 88.4666 78.2436 88.8702 77.6235 89.6249C76.9908 90.3949 76.7428 91.2618 76.8796 92.2256C77.001 93.1768 77.5854 94.0826 78.6326 94.9431C79.6645 95.791 80.6601 96.1963 81.6194 96.1591C82.5915 96.1065 83.3875 95.7028 84.0076 94.9482Z" fill="#019267"/>
<path d="M96.0364 67.1944L106.32 80.3326L102.293 83.4839L100.893 81.6945C100.939 82.5947 100.751 83.5017 100.327 84.4156C99.9064 85.3015 99.2724 86.0762 98.4248 86.7396C97.4202 87.5259 96.3613 88.0003 95.2482 88.1628C94.1228 88.3096 93.0164 88.125 91.9292 87.6091C90.842 87.0932 89.8499 86.2623 88.9531 85.1164L82.9453 77.4407L86.948 74.3079L92.5319 81.442C93.2199 82.3211 93.9819 82.8257 94.818 82.956C95.654 83.0864 96.4566 82.8505 97.2258 82.2485C98.0106 81.6342 98.4402 80.9056 98.5146 80.0628C98.5889 79.2199 98.2821 78.3589 97.5941 77.4799L92.0102 70.3457L96.0364 67.1944Z" fill="#019267"/>
<path d="M102.652 72.9751C101.888 71.4184 101.533 69.9048 101.588 68.4343C101.661 66.9551 102.108 65.6256 102.928 64.4459C103.765 63.2574 104.918 62.303 106.385 61.5826C108.264 60.6602 110.071 60.3835 111.807 60.7527C113.56 61.1131 115.073 62.0913 116.345 63.6873L111.46 66.0856C110.487 65.1425 109.409 64.9608 108.228 65.5406C107.387 65.9535 106.879 66.614 106.703 67.522C106.518 68.4121 106.725 69.4655 107.322 70.6822C107.919 71.899 108.631 72.7153 109.457 73.1314C110.274 73.5296 111.103 73.5222 111.944 73.1093C113.125 72.5295 113.64 71.566 113.49 70.2188L118.374 67.8205C118.842 69.7673 118.686 71.5535 117.908 73.1793C117.129 74.805 115.81 76.0747 113.949 76.9883C112.482 77.7087 111.022 78.0368 109.569 77.9728C108.134 77.9 106.809 77.4402 105.594 76.5935C104.397 75.7379 103.416 74.5318 102.652 72.9751Z" fill="#019267"/>
<path d="M126.958 54.5154C128.814 54.0514 130.458 54.2981 131.889 55.2554C133.315 56.1934 134.296 57.7357 134.833 59.8823L137.196 69.3387L132.265 70.5711L130.068 61.7819C129.798 60.6989 129.307 59.9278 128.596 59.4685C127.886 59.0091 127.057 58.8979 126.109 59.1347C125.161 59.3715 124.482 59.8597 124.071 60.5994C123.66 61.339 123.59 62.2503 123.861 63.3333L126.057 72.1225L121.097 73.3622L115.732 51.8967L120.693 50.657L122.556 58.1119C122.88 57.2708 123.424 56.5287 124.187 55.8858C124.951 55.2429 125.875 54.7861 126.958 54.5154Z" fill="#019267"/>
<path d="M161.508 70.2443L159.755 68.182C157.688 69.4638 155.316 69.975 152.637 69.7156C151.03 69.56 149.657 69.1666 148.516 68.5355C147.378 67.8845 146.527 67.0512 145.965 66.0354C145.424 65.0018 145.216 63.8401 145.341 62.5505C145.468 61.241 145.929 60.0942 146.725 59.1099C147.544 58.1077 148.69 57.3375 150.163 56.7994C149.709 56.1145 149.401 55.4738 149.238 54.8773C149.078 54.261 149.031 53.6056 149.098 52.9112C149.194 51.9192 149.54 51.0415 150.134 50.278C150.729 49.5145 151.534 48.9516 152.551 48.5895C153.589 48.2094 154.782 48.0846 156.132 48.2153C157.501 48.3479 158.637 48.7083 159.541 49.2965C160.446 49.8848 161.096 50.6186 161.491 51.498C161.887 52.3774 162.016 53.3112 161.881 54.2994L157.089 53.8353C157.161 53.3016 157.062 52.8814 156.791 52.5748C156.542 52.2503 156.179 52.065 155.703 52.0189C155.227 51.9728 154.817 52.0732 154.472 52.3202C154.128 52.5673 153.935 52.909 153.892 53.3455C153.852 53.7621 153.939 54.2111 154.153 54.6924C154.386 55.1756 154.762 55.7427 155.279 56.3936L159.887 61.8565C159.936 61.7611 159.998 61.6469 160.071 61.5138C160.163 61.3826 160.258 61.2315 160.355 61.0607L161.637 59.2924L166.726 59.7853L165.047 62.2361C164.398 63.3548 163.676 64.4062 162.879 65.3905L167.43 70.8178L161.508 70.2443ZM153.273 65.6318C154.603 65.7605 155.82 65.4979 156.924 64.8439L152.717 59.9004C151.217 60.4962 150.407 61.419 150.286 62.6689C150.213 63.4229 150.439 64.0856 150.965 64.6572C151.512 65.2108 152.281 65.5357 153.273 65.6318Z" fill="#019267"/>
<path d="M186.7 55.173L178.472 75.712L173.726 73.8108L181.954 53.2717L186.7 55.173Z" fill="#019267"/>
<path d="M198.795 77.0916C198.552 77.5036 198.273 77.9176 197.958 78.3336L187.993 72.4532C187.535 73.3864 187.413 74.2403 187.627 75.0147C187.868 75.7821 188.358 76.3836 189.096 76.8192C190.195 77.4675 191.233 77.4548 192.209 76.781L196.895 79.5464C196.098 80.3488 195.159 80.9403 194.078 81.3208C193.014 81.7115 191.884 81.8429 190.686 81.7149C189.489 81.587 188.306 81.1786 187.139 80.4897C185.731 79.6591 184.655 78.6192 183.911 77.37C183.167 76.1209 182.815 74.756 182.855 73.2755C182.896 71.7949 183.357 70.3079 184.238 68.8143C185.119 67.3208 186.19 66.1933 187.449 65.432C188.725 64.6808 190.09 64.3289 191.543 64.3764C192.997 64.4239 194.436 64.868 195.861 65.7087C197.251 66.5293 198.315 67.5505 199.052 68.7723C199.789 69.9942 200.139 71.3232 200.102 72.7592C200.082 74.2055 199.646 75.6496 198.795 77.0916ZM194.973 73.2738C195.418 72.5184 195.515 71.7656 195.264 71.0154C195.012 70.2651 194.5 69.6621 193.727 69.2062C192.989 68.7706 192.236 68.6155 191.468 68.7408C190.717 68.8762 190.048 69.3033 189.462 70.0221L194.973 73.2738Z" fill="#019267"/>
<path d="M204.099 87.4298L201.347 90.7794L199.337 89.128C197.905 87.9511 197.073 86.6871 196.841 85.336C196.623 83.9695 197.165 82.4931 198.469 80.9068L202.683 75.7784L201.112 74.4876L203.807 71.2073L205.378 72.4981L207.96 69.3564L211.91 72.6024L209.328 75.7441L211.916 77.8701L209.22 81.1505L206.633 79.0244L202.381 84.199C202.065 84.5841 201.929 84.9372 201.975 85.2585C202.02 85.5797 202.259 85.9175 202.69 86.2719L204.099 87.4298Z" fill="#019267"/>
<path d="M216.832 76.9128L220.497 80.648L212.432 83.8691L210.024 81.4146L216.832 76.9128Z" fill="#019267"/>
<path d="M209.83 101.275C208.974 100.098 208.412 98.9043 208.147 97.6925C207.881 96.4807 207.901 95.3566 208.206 94.3203C208.528 93.2723 209.101 92.3993 209.924 91.7012L212.898 95.7861C212.466 96.1747 212.246 96.668 212.237 97.2659C212.229 97.8639 212.43 98.4448 212.841 99.0088C213.216 99.5245 213.6 99.8488 213.993 99.982C214.414 100.12 214.785 100.071 215.107 99.8363C215.494 99.5547 215.63 99.1479 215.513 98.616C215.414 98.0724 215.148 97.2672 214.716 96.2006C214.238 95.0695 213.885 94.0936 213.657 93.2731C213.446 92.4408 213.436 91.5974 213.627 90.7429C213.835 89.8767 214.398 89.1091 215.316 88.4404C216.09 87.8772 216.943 87.5763 217.877 87.5376C218.838 87.5034 219.804 87.7622 220.773 88.3142C221.753 88.8823 222.66 89.7383 223.493 90.8824C224.725 92.5744 225.274 94.2089 225.14 95.7858C225.018 97.3789 224.317 98.7525 223.037 99.9066L220.256 96.0875C220.676 95.6828 220.894 95.2035 220.91 94.6495C220.938 94.1117 220.746 93.5607 220.335 92.9967C219.984 92.5133 219.617 92.2131 219.236 92.0961C218.871 91.9673 218.527 92.0203 218.205 92.2549C217.818 92.5365 217.675 92.9491 217.775 93.4928C217.886 94.0525 218.162 94.8379 218.603 95.8489C219.072 97.0357 219.407 98.0371 219.607 98.8533C219.823 99.6578 219.819 100.499 219.595 101.377C219.399 102.259 218.84 103.049 217.917 103.745C217.127 104.32 216.254 104.611 215.297 104.617C214.368 104.628 213.421 104.344 212.456 103.764C211.503 103.2 210.628 102.37 209.83 101.275Z" fill="#019267"/>
<path d="M240.923 130.909C241.47 132.908 241.299 134.66 240.409 136.164C239.524 137.688 238.005 138.745 235.852 139.334L226.451 141.909L225.108 137.007L233.846 134.614C234.884 134.329 235.606 133.832 236.011 133.122C236.44 132.426 236.523 131.597 236.26 130.636C235.996 129.674 235.5 128.994 234.771 128.594C234.066 128.209 233.194 128.158 232.156 128.442L223.418 130.836L222.076 125.933L230.813 123.54C231.852 123.256 232.573 122.758 232.978 122.048C233.407 121.352 233.49 120.523 233.227 119.562C232.964 118.601 232.467 117.92 231.738 117.521C231.033 117.135 230.161 117.084 229.123 117.369L220.385 119.762L219.035 114.831L235.126 110.424L236.477 115.355L234.458 115.908C235.268 116.223 235.976 116.732 236.581 117.434C237.206 118.131 237.658 118.989 237.937 120.008C238.269 121.219 238.304 122.367 238.043 123.451C237.787 124.554 237.253 125.507 236.439 126.308C237.476 126.624 238.405 127.186 239.225 127.994C240.046 128.803 240.612 129.774 240.923 130.909Z" fill="#019267"/>
<path d="M233.23 138.137C234.944 138.122 236.452 138.427 237.753 139.053C239.055 139.699 240.059 140.577 240.767 141.687C241.475 142.797 241.835 144.04 241.847 145.415C241.858 146.591 241.628 147.62 241.158 148.501C240.687 149.402 240.066 150.096 239.293 150.581L241.655 150.56L241.701 155.672L225.017 155.823L224.971 150.71L227.333 150.689C226.551 150.198 225.917 149.506 225.431 148.613C224.944 147.74 224.696 146.716 224.685 145.54C224.673 144.184 225.011 142.946 225.698 141.823C226.406 140.7 227.404 139.804 228.694 139.135C230.004 138.485 231.516 138.153 233.23 138.137ZM233.313 150.635C234.589 150.623 235.592 150.256 236.323 149.531C237.054 148.827 237.415 147.967 237.406 146.95C237.397 145.934 237.02 145.07 236.276 144.359C235.552 143.668 234.553 143.328 233.277 143.339C232.001 143.351 230.988 143.709 230.237 144.413C229.506 145.138 229.145 146.008 229.154 147.025C229.163 148.041 229.54 148.895 230.283 149.586C231.027 150.297 232.037 150.646 233.313 150.635Z" fill="#019267"/>
<path d="M222.966 164.528L230.787 160.838L223.913 159.534L224.865 154.511L246.604 158.633L245.651 163.656L233.636 161.378L239.364 167.607L238.188 173.805L231.255 165.43L221.785 170.756L222.966 164.528Z" fill="#019267"/>
<path d="M223.975 187.339C223.531 187.16 223.081 186.945 222.623 186.695L226.965 175.97C225.974 175.655 225.112 175.66 224.378 175.987C223.654 176.339 223.132 176.912 222.81 177.707C222.332 178.889 222.498 179.914 223.308 180.779L221.266 185.823C220.355 185.153 219.631 184.312 219.095 183.299C218.551 182.305 218.254 181.206 218.203 180.003C218.153 178.8 218.382 177.57 218.891 176.314C219.504 174.798 220.373 173.581 221.499 172.66C222.624 171.739 223.922 171.189 225.392 171.011C226.863 170.832 228.401 171.068 230.009 171.718C231.616 172.369 232.89 173.261 233.829 174.394C234.76 175.545 235.31 176.843 235.478 178.287C235.646 179.732 235.42 181.221 234.799 182.754C234.193 184.251 233.34 185.454 232.241 186.364C231.141 187.273 229.879 187.816 228.453 187.991C227.019 188.185 225.527 187.968 223.975 187.339ZM227.186 182.994C227.998 183.323 228.757 183.308 229.462 182.948C230.167 182.589 230.688 181.993 231.024 181.161C231.346 180.367 231.388 179.599 231.151 178.858C230.906 178.135 230.384 177.537 229.587 177.063L227.186 182.994Z" fill="#019267"/>
<path d="M207.072 196.074C208 194.953 209.019 194.114 210.127 193.557C211.236 192.999 212.33 192.741 213.409 192.781C214.505 192.834 215.492 193.173 216.372 193.798L213.149 197.689C212.666 197.367 212.133 197.275 211.552 197.415C210.97 197.555 210.457 197.893 210.012 198.43C209.605 198.922 209.386 199.374 209.354 199.788C209.325 200.229 209.464 200.577 209.771 200.831C210.139 201.137 210.567 201.167 211.053 200.923C211.555 200.692 212.27 200.235 213.197 199.554C214.175 198.811 215.033 198.227 215.772 197.804C216.526 197.393 217.341 197.175 218.216 197.149C219.107 197.136 219.99 197.492 220.865 198.217C221.602 198.827 222.104 199.58 222.372 200.475C222.643 201.398 222.631 202.397 222.336 203.472C222.028 204.563 221.422 205.654 220.52 206.744C219.185 208.356 217.737 209.292 216.175 209.552C214.602 209.827 213.097 209.487 211.663 208.532L214.676 204.893C215.172 205.201 215.69 205.294 216.231 205.172C216.759 205.066 217.245 204.744 217.69 204.207C218.072 203.746 218.272 203.317 218.291 202.918C218.326 202.533 218.189 202.213 217.882 201.959C217.514 201.654 217.079 201.617 216.577 201.848C216.062 202.094 215.369 202.556 214.498 203.232C213.464 203.981 212.577 204.553 211.835 204.948C211.109 205.356 210.293 205.56 209.387 205.561C208.484 205.589 207.58 205.242 206.677 204.52C205.925 203.897 205.428 203.123 205.185 202.197C204.945 201.299 204.986 200.312 205.31 199.234C205.62 198.171 206.208 197.118 207.072 196.074Z" fill="#019267"/>
<path d="M195.685 207.287C196.964 206.27 198.336 205.625 199.8 205.352C201.248 205.092 202.672 205.233 204.071 205.775C205.455 206.331 206.687 207.287 207.766 208.644C208.833 209.986 209.473 211.399 209.687 212.885C209.913 214.386 209.728 215.819 209.133 217.184C208.537 218.549 207.6 219.74 206.32 220.757C205.041 221.775 203.669 222.42 202.205 222.692C200.742 222.965 199.304 222.823 197.892 222.264C196.493 221.722 195.26 220.779 194.193 219.438C193.126 218.096 192.487 216.668 192.277 215.155C192.063 213.669 192.262 212.238 192.873 210.861C193.468 209.496 194.406 208.305 195.685 207.287ZM198.439 210.751C197.675 211.359 197.251 212.154 197.167 213.138C197.068 214.134 197.433 215.154 198.265 216.2C199.096 217.245 200 217.837 200.977 217.977C201.939 218.13 202.802 217.902 203.566 217.294C204.346 216.673 204.77 215.878 204.838 214.907C204.919 213.951 204.538 212.943 203.694 211.882C202.863 210.837 201.974 210.232 201.028 210.067C200.067 209.915 199.204 210.143 198.439 210.751Z" fill="#019267"/>
<path d="M175.712 237.523C173.805 238.337 172.046 238.404 170.435 237.726C168.806 237.055 167.553 235.693 166.677 233.64L162.854 224.674L167.53 222.68L171.083 231.013C171.505 232.004 172.096 232.651 172.854 232.956C173.602 233.287 174.435 233.257 175.351 232.867C176.268 232.476 176.875 231.892 177.172 231.115C177.459 230.364 177.391 229.494 176.969 228.504L173.415 220.17L178.091 218.176L181.645 226.51C182.067 227.5 182.657 228.148 183.416 228.453C184.164 228.784 184.996 228.754 185.913 228.363C186.829 227.972 187.436 227.388 187.734 226.611C188.02 225.861 187.953 224.99 187.53 224L183.977 215.667L188.68 213.661L195.224 229.008L190.521 231.014L189.7 229.088C189.497 229.933 189.089 230.704 188.475 231.399C187.869 232.112 187.08 232.676 186.108 233.09C184.953 233.583 183.821 233.773 182.711 233.661C181.583 233.557 180.567 233.156 179.663 232.458C179.491 233.528 179.06 234.525 178.37 235.448C177.68 236.37 176.794 237.062 175.712 237.523Z" fill="#019267"/>
<path d="M151.06 233.514C150.991 233.041 150.949 232.544 150.933 232.022L162.383 230.353C162.155 229.339 161.715 228.597 161.062 228.129C160.393 227.682 159.634 227.521 158.786 227.645C157.523 227.828 156.723 228.489 156.385 229.626L151.001 230.411C151.119 229.286 151.479 228.236 152.083 227.262C152.666 226.29 153.464 225.479 154.477 224.828C155.49 224.177 156.668 223.753 158.009 223.558C159.626 223.322 161.116 223.457 162.479 223.964C163.842 224.47 164.972 225.313 165.869 226.491C166.766 227.67 167.34 229.117 167.59 230.833C167.84 232.549 167.713 234.099 167.21 235.481C166.687 236.867 165.844 237.997 164.682 238.871C163.521 239.746 162.121 240.302 160.484 240.541C158.886 240.774 157.417 240.645 156.077 240.156C154.737 239.666 153.631 238.85 152.759 237.708C151.868 236.569 151.302 235.171 151.06 233.514ZM156.432 234.091C156.558 234.959 156.955 235.606 157.621 236.033C158.288 236.459 159.065 236.608 159.952 236.479C160.801 236.355 161.485 236.004 162.005 235.424C162.505 234.848 162.758 234.096 162.763 233.168L156.432 234.091Z" fill="#019267"/>
<path d="M140.593 228.809L140.633 224.474L143.234 224.498C145.088 224.515 146.529 224.976 147.557 225.883C148.585 226.809 149.09 228.299 149.071 230.352L149.01 236.99L151.043 237.008L151.004 241.254L148.971 241.235L148.933 245.301L143.821 245.254L143.858 241.188L140.509 241.157L140.549 236.912L143.897 236.942L143.959 230.245C143.963 229.747 143.847 229.387 143.61 229.166C143.373 228.944 142.975 228.831 142.417 228.826L140.593 228.809Z" fill="#019267"/>
<path d="M128.156 239.471C126.272 239.135 124.873 238.238 123.959 236.779C123.041 235.34 122.777 233.531 123.165 231.353L124.877 221.757L129.881 222.65L128.29 231.568C128.094 232.667 128.226 233.572 128.687 234.281C129.148 234.991 129.859 235.432 130.82 235.603C131.782 235.775 132.601 235.607 133.279 235.1C133.956 234.594 134.393 233.791 134.589 232.692L136.18 223.773L141.213 224.671L137.329 246.453L132.295 245.555L133.644 237.99C133.005 238.625 132.205 239.08 131.245 239.354C130.285 239.628 129.255 239.667 128.156 239.471Z" fill="#019267"/>
<path d="M115.583 237.576C116.43 237.872 117.04 238.361 117.414 239.041C117.763 239.733 117.809 240.446 117.552 241.18C117.288 241.933 116.807 242.461 116.109 242.766C115.386 243.083 114.601 243.093 113.754 242.796C112.927 242.506 112.338 242.015 111.99 241.323C111.615 240.642 111.56 239.926 111.824 239.174C112.081 238.44 112.571 237.915 113.294 237.598C113.992 237.293 114.755 237.286 115.583 237.576ZM113.758 235.099L119.274 219.353L124.099 221.043L118.583 236.789L113.758 235.099Z" fill="#019267"/>
<path d="M100.185 228.882C98.4666 227.953 97.4024 226.652 96.9923 224.98C96.5552 223.316 96.863 221.511 97.9155 219.565L102.552 210.991L107.023 213.409L102.714 221.378C102.183 222.36 102.024 223.26 102.239 224.078C102.453 224.897 102.99 225.538 103.849 226.003C104.708 226.468 105.539 226.566 106.342 226.297C107.144 226.029 107.811 225.403 108.342 224.422L112.651 216.453L117.149 218.885L109.212 233.56L104.715 231.128L105.767 229.182C104.961 229.584 104.072 229.761 103.101 229.712C102.121 229.68 101.149 229.404 100.185 228.882Z" fill="#019267"/>
<path d="M86.4422 219.323C85.5538 218.552 84.935 217.699 84.586 216.763C84.2219 215.814 84.1138 214.889 84.2618 213.988L82.7141 215.773L78.8518 212.422L89.7646 199.842C90.7703 198.682 91.9115 197.838 93.188 197.31C94.4626 196.753 95.8159 196.607 97.2478 196.873C98.6646 197.126 100.073 197.859 101.474 199.074C103.341 200.694 104.469 202.451 104.857 204.345C105.259 206.224 104.89 207.988 103.75 209.637L99.9324 206.326C100.23 205.74 100.27 205.115 100.054 204.453C99.8502 203.775 99.4171 203.148 98.7546 202.574C97.9566 201.881 97.1217 201.566 96.25 201.628C95.3763 201.662 94.5019 202.183 93.6268 203.192L92.0791 204.976C92.9649 204.716 93.9023 204.684 94.8914 204.883C95.8674 205.096 96.7996 205.588 97.688 206.359C98.727 207.26 99.4395 208.34 99.8256 209.598C100.199 210.872 100.209 212.213 99.8569 213.623C99.4767 215.035 98.725 216.388 97.6017 217.683C96.4784 218.978 95.2514 219.906 93.9206 220.467C92.5747 221.014 91.2515 221.186 89.9512 220.982C88.6508 220.777 87.4811 220.224 86.4422 219.323ZM88.1802 209.471C87.3443 210.435 86.9558 211.43 87.0146 212.457C87.0583 213.472 87.4641 214.312 88.2321 214.978C89 215.644 89.8966 215.934 90.922 215.847C91.9192 215.762 92.8358 215.238 93.6717 214.274C94.5076 213.31 94.9102 212.314 94.8796 211.284C94.8208 210.257 94.4074 209.41 93.6395 208.744C92.8715 208.078 91.9824 207.795 90.9721 207.895C89.9468 207.982 89.0162 208.507 88.1802 209.471Z" fill="#019267"/>
</svg>
