<svg width="102" height="102" viewBox="0 0 102 102" fill="none" xmlns="http://www.w3.org/2000/svg">
<g id="solar:delivery-broken">
<g id="Group">
<path id="Vector" d="M31.9005 64.8765C32.0121 65.28 32.2021 65.6576 32.4597 65.9877C32.7172 66.3177 33.0372 66.5939 33.4015 66.8003C33.7658 67.0067 34.1671 67.1393 34.5826 67.1906C34.9982 67.2419 35.4197 67.2108 35.8232 67.0992C36.2267 66.9876 36.6043 66.7976 36.9344 66.54C37.2645 66.2825 37.5406 65.9624 37.747 65.5982C37.9534 65.2339 38.0861 64.8326 38.1374 64.4171C38.1887 64.0015 38.1576 63.58 38.046 63.1765L31.9005 64.8765ZM13.6 20.0815C13.1949 19.9631 12.7703 19.9264 12.3509 19.9735C11.9315 20.0205 11.5256 20.1504 11.1568 20.3556C10.788 20.5607 10.4636 20.8371 10.2024 21.1686C9.94127 21.5001 9.74854 21.8802 9.63542 22.2868C9.52231 22.6934 9.49106 23.1184 9.5435 23.5372C9.59594 23.9559 9.73101 24.3601 9.94089 24.7262C10.1508 25.0924 10.4313 25.4132 10.7661 25.6701C11.1009 25.927 11.4835 26.1148 11.8915 26.2227L13.6 20.0815ZM85.799 66.8315C86.214 66.7355 86.6056 66.5573 86.9506 66.3074C87.2956 66.0575 87.5871 65.741 87.8077 65.3766C88.0283 65.0122 88.1736 64.6072 88.2351 64.1857C88.2965 63.7642 88.2728 63.3346 88.1654 62.9223C88.0581 62.5101 87.8691 62.1236 87.6098 61.7856C87.3505 61.4476 87.0261 61.1651 86.6557 60.9546C86.2853 60.7441 85.8765 60.61 85.4534 60.5602C85.0304 60.5105 84.6016 60.546 84.1925 60.6647L85.799 66.8315ZM43.3372 74.626C44.6547 79.386 41.7647 84.4137 36.6477 85.744L38.25 91.9107C46.6522 89.7305 51.7862 81.2772 49.4827 72.926L43.3372 74.626ZM36.6477 85.744C31.4967 87.0827 26.3287 84.0907 25.0027 79.2882L18.8572 80.9882C21.1522 89.297 29.8817 94.0867 38.25 91.9107L36.6477 85.744ZM25.0027 79.2882C23.6852 74.5282 26.5752 69.5005 31.6922 68.1702L30.09 62.0077C21.6877 64.188 16.5495 72.637 18.8572 80.9882L25.0027 79.2882ZM31.6922 68.1702C36.8432 66.8315 42.0112 69.8235 43.3372 74.626L49.4827 72.926C47.1877 64.6172 38.4582 59.8275 30.09 62.0035L31.6922 68.1702ZM38.046 63.1765L28.9 30.069L22.7545 31.769L31.9005 64.8765L38.046 63.1765ZM20.842 22.0875L13.6 20.0815L11.8915 26.2227L19.1377 28.233L20.842 22.0875ZM28.9 30.069C28.3608 28.1558 27.3351 26.415 25.9229 25.0162C24.5107 23.6175 22.7602 22.6084 20.842 22.0875L19.1462 28.233C20.9525 28.7345 22.2955 30.1072 22.7545 31.769L28.9 30.069ZM47.2175 76.8615L85.799 66.8315L84.1967 60.6647L45.611 70.6947L47.2175 76.8615Z" fill="white"/>
<path id="Vector_2" d="M81.4513 26.5031C79.39 19.0401 78.3573 15.3086 75.3313 13.6129C72.2968 11.9129 68.4505 12.9159 60.758 14.9176L52.598 17.0341C44.9055 19.0316 41.0593 20.0346 39.3125 22.9756C37.5615 25.9124 38.59 29.6439 40.6513 37.1026L42.84 45.0204C44.9013 52.4791 45.9298 56.2106 48.96 57.9064C51.9903 59.6064 55.8365 58.6034 63.529 56.6059L71.689 54.4809C79.3815 52.4834 83.2278 51.4846 84.9788 48.5479C85.9393 46.9329 86.0625 45.0799 85.6333 42.5001" stroke="white" stroke-width="3" stroke-linecap="round"/>
</g>
</g>
</svg>
