<svg width="51" height="51" viewBox="0 0 51 51" fill="none" xmlns="http://www.w3.org/2000/svg">
<g id="fluent:class-24-regular">
<path id="Vector" d="M36.6562 4.25C37.4237 4.25 38.1836 4.40115 38.8926 4.69483C39.6016 4.9885 40.2458 5.41895 40.7884 5.96159C41.331 6.50424 41.7615 7.14845 42.0552 7.85744C42.3488 8.56644 42.5 9.32634 42.5 10.0938V40.9062C42.5 41.6737 42.3488 42.4336 42.0552 43.1426C41.7615 43.8516 41.331 44.4958 40.7884 45.0384C40.2458 45.581 39.6016 46.0115 38.8926 46.3052C38.1836 46.5988 37.4237 46.75 36.6562 46.75H14.3438C13.5762 46.75 12.8161 46.5988 12.107 46.305C11.3978 46.0112 10.7535 45.5805 10.2108 45.0377C9.66817 44.4948 9.23777 43.8503 8.94422 43.1411C8.65067 42.4318 8.49972 41.6717 8.5 40.9041V10.0938C8.5 7.41625 10.2978 5.16375 12.75 4.46887V7.96875C12.104 8.45325 11.6875 9.2225 11.6875 10.0938V40.902C11.6875 42.3682 12.8775 43.5582 14.3438 43.5582H36.6562C38.1225 43.5582 39.3125 42.3682 39.3125 40.902V10.0938C39.3125 8.6275 38.1225 7.4375 36.6562 7.4375H31.875V4.25H36.6562ZM29.75 4.25V21.5454C29.75 23.1327 28.05 23.7277 27.0088 23.1689L26.8345 23.0584L22.3167 20.3277L17.901 22.9861C16.8385 23.7511 15.0748 23.2836 14.8899 21.8004L14.875 21.5475V4.25H29.75ZM26.5625 7.4375H18.0625V19.1739L21.4051 17.1573C21.6714 17.0157 21.9668 16.9374 22.2683 16.9286C22.5698 16.9197 22.8692 16.9805 23.1434 17.1063L26.5646 19.176V7.4375H26.5625Z" fill="white"/>
</g>
</svg>
