<svg width="50" height="47" viewBox="0 0 50 47" fill="none" xmlns="http://www.w3.org/2000/svg">
<path d="M42.9688 35.8184C44.043 36.3555 45.0114 37.0146 45.874 37.7959C46.7367 38.5771 47.4691 39.4479 48.0713 40.4082C48.6735 41.3685 49.1455 42.4102 49.4873 43.5332C49.8291 44.6562 50 45.8118 50 47H46.875C46.875 45.7142 46.6309 44.5016 46.1426 43.3623C45.6543 42.223 44.987 41.2301 44.1406 40.3838C43.2943 39.5374 42.2933 38.862 41.1377 38.3574C39.9821 37.8529 38.7695 37.6087 37.5 37.625C36.1979 37.625 34.9854 37.8691 33.8623 38.3574C32.7393 38.8457 31.7464 39.513 30.8838 40.3594C30.0212 41.2057 29.3457 42.2067 28.8574 43.3623C28.3691 44.5179 28.125 45.7305 28.125 47H25C25 45.8118 25.1628 44.6562 25.4883 43.5332C25.8138 42.4102 26.2858 41.3685 26.9043 40.4082C27.5228 39.4479 28.2633 38.5771 29.126 37.7959C29.9886 37.0146 30.957 36.3555 32.0312 35.8184C30.8105 34.9395 29.8584 33.8408 29.1748 32.5225C28.4912 31.2041 28.1413 29.7799 28.125 28.25C28.125 26.9642 28.3691 25.7516 28.8574 24.6123C29.3457 23.473 30.013 22.4801 30.8594 21.6338C31.7057 20.7874 32.6986 20.112 33.8379 19.6074C34.9772 19.1029 36.1979 18.8587 37.5 18.875C38.7858 18.875 39.9984 19.1191 41.1377 19.6074C42.277 20.0957 43.2699 20.763 44.1162 21.6094C44.9626 22.4557 45.638 23.4567 46.1426 24.6123C46.6471 25.7679 46.8913 26.9805 46.875 28.25C46.875 29.7799 46.5332 31.2041 45.8496 32.5225C45.166 33.8408 44.2057 34.9395 42.9688 35.8184ZM37.5 34.5C38.3626 34.5 39.1683 34.3372 39.917 34.0117C40.6657 33.6862 41.333 33.2386 41.9189 32.6689C42.5049 32.0993 42.9525 31.4401 43.2617 30.6914C43.571 29.9427 43.7337 29.1289 43.75 28.25C43.75 27.3874 43.5872 26.5817 43.2617 25.833C42.9362 25.0843 42.4886 24.417 41.9189 23.8311C41.3493 23.2451 40.6901 22.7975 39.9414 22.4883C39.1927 22.179 38.3789 22.0163 37.5 22C36.6374 22 35.8317 22.1628 35.083 22.4883C34.3343 22.8138 33.667 23.2614 33.0811 23.8311C32.4951 24.4007 32.0475 25.0599 31.7383 25.8086C31.429 26.5573 31.2663 27.3711 31.25 28.25C31.25 29.1126 31.4128 29.9183 31.7383 30.667C32.0638 31.4157 32.5114 32.083 33.0811 32.6689C33.6507 33.2549 34.3099 33.7025 35.0586 34.0117C35.8073 34.321 36.6211 34.4837 37.5 34.5ZM25 36.4531C24.4792 37.0553 24.0072 37.682 23.584 38.333C23.1608 38.9841 22.7865 39.6839 22.4609 40.4326C21.5983 39.5374 20.5566 38.8457 19.3359 38.3574C18.1152 37.8691 16.8783 37.625 15.625 37.625H6.25V6.375H3.125V40.75H22.3389C22.111 41.2546 21.9238 41.7673 21.7773 42.2881C21.6309 42.8089 21.5088 43.3379 21.4111 43.875H0V3.25H6.25V0.125H15.625C17.0573 0.125 18.4326 0.344727 19.751 0.78418C21.0693 1.22363 22.2982 1.88281 23.4375 2.76172C24.5605 1.88281 25.7812 1.22363 27.0996 0.78418C28.418 0.344727 29.8014 0.125 31.25 0.125H40.625V3.25H46.875V18.875C45.931 17.9473 44.8893 17.1742 43.75 16.5557V6.375H40.625V15.3838C40.1042 15.2373 39.5833 15.1315 39.0625 15.0664C38.5417 15.0013 38.0208 14.9688 37.5 14.9688V3.25H31.25C30.1107 3.25 29.0039 3.44531 27.9297 3.83594C26.8555 4.22656 25.8789 4.80436 25 5.56934V36.4531ZM21.875 36.1357V5.56934C20.9961 4.82064 20.0195 4.25098 18.9453 3.86035C17.8711 3.46973 16.7643 3.26628 15.625 3.25H9.375V34.5H15.625C16.7155 34.5 17.7897 34.6383 18.8477 34.915C19.9056 35.1917 20.9147 35.5986 21.875 36.1357Z" fill="white"/>
</svg>
