<svg width="51" height="51" viewBox="0 0 51 51" fill="none" xmlns="http://www.w3.org/2000/svg">
<g id="material-symbols:interactive-space-outline">
<path id="Vector" d="M14.875 18.0625L19.125 13.8125L14.875 9.5625L10.625 13.8125L14.875 18.0625ZM8.5 29.75C7.33125 29.75 6.33038 29.3335 5.49738 28.5005C4.66438 27.6675 4.24859 26.6673 4.25 25.5V6.375C4.25 5.20625 4.6665 4.20538 5.4995 3.37238C6.3325 2.53938 7.33267 2.12359 8.5 2.125H42.5C43.6688 2.125 44.6696 2.5415 45.5026 3.3745C46.3356 4.2075 46.7514 5.20767 46.75 6.375V25.5C46.75 26.6688 46.3335 27.6696 45.5005 28.5026C44.6675 29.3356 43.6673 29.7514 42.5 29.75H35.6469C35.8594 29.0417 36.001 28.3333 36.0719 27.625C36.1427 26.9167 36.1427 26.2083 36.0719 25.5H42.5V6.375H8.5V25.5H14.9281C14.8573 26.2083 14.8573 26.9167 14.9281 27.625C14.999 28.3333 15.1406 29.0417 15.3531 29.75H8.5ZM35.0625 14.875C35.9479 14.875 36.7009 14.5648 37.3214 13.9443C37.9419 13.3238 38.2514 12.5715 38.25 11.6875C38.25 10.8021 37.9398 10.0491 37.3193 9.42863C36.6988 8.80813 35.9465 8.49859 35.0625 8.5C34.1771 8.5 33.4241 8.81025 32.8036 9.43075C32.1831 10.0513 31.8736 10.8035 31.875 11.6875C31.875 12.5729 32.1853 13.3259 32.8058 13.9464C33.4263 14.5669 34.1785 14.8764 35.0625 14.875ZM10.625 48.875V44.4125C10.625 43.1729 10.9707 42.0219 11.662 40.9594C12.3533 39.8969 13.265 39.1 14.3969 38.5688C16.1323 37.7542 17.9385 37.1429 19.8156 36.7349C21.6927 36.3269 23.5875 36.1236 25.5 36.125C27.4125 36.125 29.3073 36.329 31.1844 36.737C33.0615 37.145 34.8677 37.7556 36.6031 38.5688C37.7365 39.1 38.6488 39.8969 39.3401 40.9594C40.0315 42.0219 40.3764 43.1729 40.375 44.4125V48.875H10.625ZM14.875 44.625H36.125V44.4125C36.125 43.9875 36.001 43.5979 35.7531 43.2438C35.5052 42.8896 35.1865 42.624 34.7969 42.4469C33.3094 41.774 31.7865 41.2604 30.2281 40.9063C28.6698 40.5521 27.0938 40.375 25.5 40.375C23.9063 40.375 22.3302 40.5521 20.7719 40.9063C19.2135 41.2604 17.6906 41.774 16.2031 42.4469C15.8135 42.624 15.4948 42.8896 15.2469 43.2438C14.999 43.5979 14.875 43.9875 14.875 44.4125V44.625ZM25.5 34C23.4458 34 21.6927 33.274 20.2406 31.8219C18.7885 30.3698 18.0625 28.6167 18.0625 26.5625C18.0625 24.5083 18.7885 22.7552 20.2406 21.3031C21.6927 19.851 23.4458 19.125 25.5 19.125C27.5542 19.125 29.3073 19.851 30.7594 21.3031C32.2115 22.7552 32.9375 24.5083 32.9375 26.5625C32.9375 28.6167 32.2115 30.3698 30.7594 31.8219C29.3073 33.274 27.5542 34 25.5 34ZM25.5 29.75C26.3854 29.75 27.1384 29.4398 27.7589 28.8193C28.3794 28.1988 28.6889 27.4465 28.6875 26.5625C28.6875 25.6771 28.3773 24.9241 27.7568 24.3036C27.1363 23.6831 26.384 23.3736 25.5 23.375C24.6146 23.375 23.8616 23.6853 23.2411 24.3058C22.6206 24.9263 22.3111 25.6785 22.3125 26.5625C22.3125 27.4479 22.6228 28.2009 23.2433 28.8214C23.8638 29.4419 24.616 29.7514 25.5 29.75Z" fill="white"/>
</g>
</svg>
