<svg width="102" height="102" viewBox="0 0 102 102" fill="none" xmlns="http://www.w3.org/2000/svg">
<g id="material-symbols-light:chart-data-outline">
<path id="Vector" d="M31.45 64.974L44.4125 52.0965L52.9125 60.5965L70.125 43.4053V53.125H74.375V36.125H57.375V40.375H67.0947L52.9125 54.5573L44.4125 46.0572L28.526 62.05L31.45 64.974ZM23.8637 85C21.9087 85 20.2767 84.3455 18.9677 83.0365C17.6559 81.7247 17 80.0913 17 78.1362V23.8637C17 21.9087 17.6559 20.2767 18.9677 18.9677C20.2767 17.6559 21.9087 17 23.8637 17H78.1362C80.0913 17 81.7233 17.6559 83.0322 18.9677C84.3441 20.2767 85 21.9087 85 23.8637V78.1362C85 80.0913 84.3455 81.7233 83.0365 83.0322C81.7247 84.3441 80.0913 85 78.1362 85H23.8637ZM23.8637 80.75H78.1362C78.7879 80.75 79.3872 80.478 79.934 79.934C80.478 79.3872 80.75 78.7879 80.75 78.1362V23.8637C80.75 23.2121 80.478 22.6128 79.934 22.066C79.3872 21.522 78.7879 21.25 78.1362 21.25H23.8637C23.2121 21.25 22.6128 21.522 22.066 22.066C21.522 22.6128 21.25 23.2121 21.25 23.8637V78.1362C21.25 78.7879 21.522 79.3872 22.066 79.934C22.6128 80.478 23.2121 80.75 23.8637 80.75Z" fill="white"/>
</g>
</svg>
