<svg width="155" height="155" viewBox="0 0 155 155" fill="none" xmlns="http://www.w3.org/2000/svg">
<g id="ph:infinity-bold">
<path id="Vector" d="M152.578 77.5C152.579 84.6856 150.449 91.7102 146.457 97.6851C142.465 103.66 136.791 108.317 130.153 111.067C123.514 113.817 116.209 114.536 109.161 113.134C102.114 111.732 95.6405 108.271 90.5599 103.19L90.2632 102.869L54.0199 61.9455C50.9557 58.9375 47.0714 56.9014 42.8543 56.093C38.6373 55.2845 34.2754 55.7395 30.316 57.401C26.3566 59.0625 22.9762 61.8565 20.5989 65.4322C18.2216 69.0079 16.9534 73.2061 16.9534 77.5C16.9534 81.7938 18.2216 85.9921 20.5989 89.5678C22.9762 93.1435 26.3566 95.9374 30.316 97.5989C34.2754 99.2604 38.6373 99.7155 42.8543 98.907C47.0714 98.0985 50.9557 96.0625 54.0199 93.0545L55.8847 90.9474C56.5172 90.2318 57.2845 89.6478 58.1427 89.2287C59.0009 88.8097 59.9333 88.5637 60.8865 88.505C61.8398 88.4462 62.7953 88.5758 63.6985 88.8863C64.6017 89.1968 65.4348 89.6822 66.1504 90.3147C66.866 90.9472 67.4501 91.7145 67.8691 92.5727C68.2882 93.4309 68.5341 94.3633 68.5929 95.3165C68.6516 96.2698 68.5221 97.2253 68.2116 98.1285C67.901 99.0317 67.4157 99.8648 66.7832 100.58L64.7548 102.869L64.4582 103.19C59.3773 108.27 52.9043 111.729 45.8575 113.131C38.8107 114.532 31.5066 113.812 24.8689 111.062C18.2311 108.312 12.5578 103.656 8.5663 97.6822C4.57479 91.7082 2.44434 84.6847 2.44434 77.5C2.44434 70.3152 4.57479 63.2918 8.5663 57.3178C12.5578 51.3438 18.2311 46.6875 24.8689 43.9378C31.5066 41.188 38.8107 40.4682 45.8575 41.8694C52.9043 43.2707 59.3773 46.73 64.4582 51.8099L64.7548 52.1308L100.998 93.0545C104.062 96.0625 107.947 98.0985 112.164 98.907C116.381 99.7155 120.743 99.2604 124.702 97.5989C128.661 95.9374 132.042 93.1435 134.419 89.5678C136.796 85.9921 138.065 81.7938 138.065 77.5C138.065 73.2061 136.796 69.0079 134.419 65.4322C132.042 61.8565 128.661 59.0625 124.702 57.401C120.743 55.7395 116.381 55.2845 112.164 56.093C107.947 56.9014 104.062 58.9375 100.998 61.9455L99.1334 64.0525C98.5008 64.7681 97.7336 65.3521 96.8754 65.7712C96.0172 66.1903 95.0848 66.4362 94.1315 66.495C93.1783 66.5537 92.2228 66.4241 91.3196 66.1136C90.4164 65.8031 89.5832 65.3177 88.8676 64.6852C88.152 64.0527 87.568 63.2854 87.1489 62.4272C86.7299 61.569 86.4839 60.6367 86.4252 59.6834C86.3664 58.7301 86.496 57.7746 86.8065 56.8715C87.117 55.9683 87.6024 55.1351 88.2349 54.4195L90.2632 52.1308L90.5599 51.8099C95.6405 46.7285 102.114 43.2679 109.161 41.8658C116.209 40.4637 123.514 41.1831 130.153 43.9331C136.791 46.683 142.465 51.3399 146.457 57.3149C150.449 63.2898 152.579 70.3143 152.578 77.5Z" fill="black"/>
</g>
</svg>
