<svg width="647" height="198" viewBox="0 0 647 198" fill="none" xmlns="http://www.w3.org/2000/svg">
<path d="M63.1292 121.99L94.5153 112.915L99.8628 131.411L44.5168 147.413L16.078 49.051L40.0379 42.1236L63.1292 121.99Z" fill="white"/>
<path d="M171.933 85.2979C172.187 87.6178 172.306 90.0502 172.29 92.595L116.178 98.7249C117.114 103.709 119.131 107.401 122.23 109.802C125.415 112.095 129.086 113.014 133.242 112.56C139.429 111.884 143.445 108.805 145.291 103.321L171.68 100.438C170.907 105.902 168.965 110.956 165.853 115.6C162.838 120.233 158.804 124.049 153.752 127.046C148.7 130.043 142.887 131.901 136.314 132.619C128.388 133.485 121.147 132.564 114.591 129.857C108.035 127.15 102.674 122.844 98.5074 116.942C94.3412 111.039 91.7987 103.882 90.88 95.4729C89.9614 87.0633 90.8504 79.5322 93.5472 72.8796C96.3406 66.2165 100.646 60.8554 106.463 56.7964C112.279 52.7375 119.199 50.2697 127.222 49.3933C135.052 48.538 142.191 49.4209 148.64 52.0422C155.088 54.6634 160.337 58.8341 164.385 64.5542C168.53 70.2637 171.046 77.1783 171.933 85.2979ZM145.847 81.5451C145.382 77.292 143.563 74.0672 140.388 71.8708C137.214 69.6744 133.452 68.8138 129.102 69.289C124.946 69.743 121.549 71.3367 118.914 74.0701C116.374 76.7928 115.009 80.4144 114.818 84.9348L145.847 81.5451Z" fill="white"/>
<path d="M220.382 107.824L220.631 128.971L207.943 129.121C198.9 129.227 191.825 127.123 186.718 122.807C181.609 118.394 178.996 111.18 178.878 101.165L178.496 68.7877L168.579 68.9045L168.335 48.1945L178.252 48.0777L178.018 28.2427L202.958 27.9488L203.192 47.7838L219.526 47.5913L219.77 68.3013L203.436 68.4938L203.821 101.163C203.849 103.594 204.453 105.337 205.633 106.393C206.812 107.449 208.763 107.961 211.485 107.928L220.382 107.824Z" fill="white"/>
<path d="M238.341 27.6771L263.84 28.8306L245.754 67.1416L228.998 66.3836L238.341 27.6771Z" fill="white"/>
<path d="M295.392 135.682C288.325 135.009 282.149 133.2 276.862 130.254C271.574 127.309 267.532 123.603 264.734 119.136C261.945 114.573 260.606 109.659 260.716 104.395L285.255 106.732C285.278 109.567 286.368 111.966 288.525 113.93C290.683 115.893 293.455 117.036 296.843 117.359C299.941 117.654 302.368 117.299 304.124 116.294C305.986 115.201 307.009 113.687 307.194 111.751C307.415 109.428 306.366 107.619 304.048 106.324C301.738 104.932 297.938 103.3 292.646 101.429C286.967 99.5204 282.261 97.656 278.527 95.8353C274.803 93.9178 271.689 91.2283 269.186 87.7666C266.692 84.2081 265.708 79.6701 266.233 74.1526C266.676 69.5062 268.335 65.4153 271.211 61.8798C274.194 58.2567 278.259 55.567 283.408 53.8107C288.653 52.0636 294.713 51.5173 301.585 52.1717C311.749 53.1395 319.495 56.4167 324.824 62.0033C330.25 67.5991 333.002 74.6008 333.08 83.0085L310.139 80.824C310.019 77.98 308.972 75.6338 307 73.7854C305.123 71.9463 302.491 70.8654 299.103 70.5428C296.199 70.2663 293.918 70.6351 292.258 71.6492C290.608 72.5665 289.691 73.9931 289.507 75.9291C289.285 78.2523 290.329 80.1099 292.639 81.5019C295.045 82.9031 298.806 84.4334 303.923 86.0927C309.777 88.213 314.518 90.2272 318.146 92.1355C321.782 93.947 324.843 96.6803 327.328 100.336C329.918 103.903 330.995 108.499 330.557 114.122C330.105 118.866 328.345 122.996 325.275 126.513C322.311 129.942 318.211 132.482 312.974 134.132C307.835 135.792 301.974 136.308 295.392 135.682Z" fill="white"/>
<path d="M406.375 128.407L403.178 149.313L390.634 147.394C381.695 146.027 375.057 142.799 370.721 137.709C366.399 132.523 364.995 124.98 366.509 115.08L371.404 83.0719L361.6 81.5724L364.731 61.099L374.536 62.5985L377.534 42.9902L402.189 46.7609L399.19 66.3692L415.338 68.8389L412.207 89.3122L396.059 86.8426L391.12 119.139C390.752 121.542 391.064 123.36 392.056 124.594C393.048 125.827 394.889 126.65 397.58 127.062L406.375 128.407Z" fill="white"/>
<path d="M401.286 109.407C402.599 101.149 405.288 94.1426 409.353 88.3891C413.515 82.6508 418.551 78.5285 424.463 76.0223C430.375 73.516 436.644 72.7895 443.271 73.8428C448.936 74.7434 453.699 76.682 457.558 79.6584C461.513 82.65 464.345 86.2017 466.055 90.3132L467.863 78.9335L492.495 82.849L479.719 163.227L455.087 159.312L456.896 147.932C453.899 151.296 450.057 153.786 445.37 155.404C440.778 157.037 435.649 157.403 429.983 156.503C423.453 155.465 417.766 152.838 412.923 148.622C408.095 144.31 404.592 138.781 402.415 132.035C400.35 125.209 399.974 117.666 401.286 109.407ZM461.475 119.123C462.452 112.977 461.494 107.852 458.602 103.75C455.806 99.6621 451.959 97.2292 447.061 96.4506C442.164 95.6721 437.704 96.7847 433.682 99.7883C429.771 102.711 427.327 107.246 426.351 113.392C425.374 119.538 426.276 124.702 429.057 128.886C431.949 132.988 435.844 135.429 440.741 136.208C445.639 136.986 450.051 135.866 453.977 132.847C457.999 129.843 460.498 125.269 461.475 119.123Z" fill="white"/>
<path d="M525.549 57.9251L512.023 165.007L487.279 161.882L500.804 54.7996L525.549 57.9251Z" fill="white"/>
<path d="M576.026 169.106L552.106 134.356L551.238 168.475L526.305 167.842L529.048 59.9436L553.982 60.5775L552.465 120.213L577.949 87.7411L608.714 88.5233L573.849 128.489L606.937 169.892L576.026 169.106Z" fill="white"/>
<path d="M627.688 57.3511L634.086 126.983L613.124 129.795L600.944 60.9388L627.688 57.3511ZM628.931 165.348C624.594 165.93 620.86 165.156 617.729 163.025C614.682 160.785 612.906 157.785 612.402 154.027C611.885 150.172 612.801 146.762 615.15 143.798C617.596 140.821 620.987 139.042 625.324 138.46C629.564 137.891 633.208 138.727 636.256 140.967C639.4 143.194 641.23 146.235 641.748 150.09C642.252 153.849 641.281 157.216 638.835 160.193C636.473 163.061 633.172 164.779 628.931 165.348Z" fill="white"/>
</svg>
