<svg width="580" height="487" viewBox="0 0 580 487" fill="none" xmlns="http://www.w3.org/2000/svg">
<mask id="mask0_1_239" style="mask-type:alpha" maskUnits="userSpaceOnUse" x="0" y="0" width="581" height="487">
<rect x="0.000488281" width="580" height="487" fill="#8A3C41"/>
</mask>
<g mask="url(#mask0_1_239)">
<rect x="-253.401" y="157.714" width="820" height="2" transform="rotate(-34.7596 -253.401 157.714)" fill="white"/>
<rect x="-247.7" y="165.929" width="820" height="2" transform="rotate(-34.7596 -247.7 165.929)" fill="white"/>
<rect x="-241.998" y="174.145" width="820" height="2" transform="rotate(-34.7596 -241.998 174.145)" fill="white"/>
<rect x="-236.297" y="182.36" width="820" height="2" transform="rotate(-34.7596 -236.297 182.36)" fill="white"/>
<rect x="-230.596" y="190.576" width="820" height="2" transform="rotate(-34.7596 -230.596 190.576)" fill="white"/>
<rect x="-224.894" y="198.791" width="820" height="2" transform="rotate(-34.7596 -224.894 198.791)" fill="white"/>
<rect x="-219.193" y="207.007" width="820" height="2" transform="rotate(-34.7596 -219.193 207.007)" fill="white"/>
<rect x="-213.491" y="215.222" width="820" height="2" transform="rotate(-34.7596 -213.491 215.222)" fill="white"/>
<rect x="-207.79" y="223.438" width="820" height="2" transform="rotate(-34.7596 -207.79 223.438)" fill="white"/>
<rect x="-202.089" y="231.653" width="820" height="2" transform="rotate(-34.7596 -202.089 231.653)" fill="white"/>
<rect x="-196.387" y="239.869" width="820" height="2" transform="rotate(-34.7596 -196.387 239.869)" fill="white"/>
<rect x="-190.686" y="248.084" width="820" height="2" transform="rotate(-34.7596 -190.686 248.084)" fill="white"/>
<rect x="-184.985" y="256.3" width="820" height="2" transform="rotate(-34.7596 -184.985 256.3)" fill="white"/>
<rect x="-179.283" y="264.515" width="820" height="2" transform="rotate(-34.7596 -179.283 264.515)" fill="white"/>
<rect x="-173.582" y="272.731" width="820" height="2" transform="rotate(-34.7596 -173.582 272.731)" fill="white"/>
<rect x="-167.881" y="280.946" width="820" height="2" transform="rotate(-34.7596 -167.881 280.946)" fill="white"/>
<rect x="-162.179" y="289.162" width="820" height="2" transform="rotate(-34.7596 -162.179 289.162)" fill="white"/>
<rect x="-156.478" y="297.378" width="820" height="2" transform="rotate(-34.7596 -156.478 297.378)" fill="white"/>
<rect x="-150.777" y="305.593" width="820" height="2" transform="rotate(-34.7596 -150.777 305.593)" fill="white"/>
<rect x="-145.075" y="313.809" width="820" height="2" transform="rotate(-34.7596 -145.075 313.809)" fill="white"/>
<rect x="-139.374" y="322.024" width="820" height="2" transform="rotate(-34.7596 -139.374 322.024)" fill="white"/>
<rect x="-133.673" y="330.24" width="820" height="2" transform="rotate(-34.7596 -133.673 330.24)" fill="white"/>
<rect x="-127.971" y="338.455" width="820" height="2" transform="rotate(-34.7596 -127.971 338.455)" fill="white"/>
<rect x="-122.27" y="346.671" width="820" height="2" transform="rotate(-34.7596 -122.27 346.671)" fill="white"/>
<rect x="-116.569" y="354.886" width="820" height="2" transform="rotate(-34.7596 -116.569 354.886)" fill="white"/>
<rect x="-110.867" y="363.102" width="820" height="2" transform="rotate(-34.7596 -110.867 363.102)" fill="white"/>
<rect x="-105.166" y="371.317" width="820" height="2" transform="rotate(-34.7596 -105.166 371.317)" fill="white"/>
<rect x="-99.4646" y="379.533" width="820" height="2" transform="rotate(-34.7596 -99.4646 379.533)" fill="white"/>
<rect x="-93.7633" y="387.748" width="820" height="2" transform="rotate(-34.7596 -93.7633 387.748)" fill="white"/>
<rect x="-88.0619" y="395.964" width="820" height="2" transform="rotate(-34.7596 -88.0619 395.964)" fill="white"/>
<rect x="-82.3606" y="404.179" width="820" height="2" transform="rotate(-34.7596 -82.3606 404.179)" fill="white"/>
<rect x="-76.6592" y="412.395" width="820" height="2" transform="rotate(-34.7596 -76.6592 412.395)" fill="white"/>
<rect x="-70.9579" y="420.61" width="820" height="2" transform="rotate(-34.7596 -70.9579 420.61)" fill="white"/>
<rect x="-65.2566" y="428.826" width="820" height="2" transform="rotate(-34.7596 -65.2566 428.826)" fill="white"/>
<rect x="-59.5552" y="437.041" width="820" height="2" transform="rotate(-34.7596 -59.5552 437.041)" fill="white"/>
<rect x="-53.8539" y="445.257" width="820" height="2" transform="rotate(-34.7596 -53.8539 445.257)" fill="white"/>
<rect x="-48.1525" y="453.472" width="820" height="2" transform="rotate(-34.7596 -48.1525 453.472)" fill="white"/>
<rect x="-42.4512" y="461.688" width="820" height="2" transform="rotate(-34.7596 -42.4512 461.688)" fill="white"/>
<rect x="-36.7499" y="469.903" width="820" height="2" transform="rotate(-34.7596 -36.7499 469.903)" fill="white"/>
<rect x="-31.0485" y="478.119" width="820" height="2" transform="rotate(-34.7596 -31.0485 478.119)" fill="white"/>
<rect x="-25.3472" y="486.334" width="820" height="2" transform="rotate(-34.7596 -25.3472 486.334)" fill="white"/>
<rect x="-19.6458" y="494.55" width="820" height="2" transform="rotate(-34.7596 -19.6458 494.55)" fill="white"/>
<rect x="-13.9445" y="502.765" width="820" height="2" transform="rotate(-34.7596 -13.9445 502.765)" fill="white"/>
<rect x="-8.24314" y="510.981" width="820" height="2" transform="rotate(-34.7596 -8.24314 510.981)" fill="white"/>
<rect x="-2.54179" y="519.196" width="820" height="2" transform="rotate(-34.7596 -2.54179 519.196)" fill="white"/>
<rect x="3.15955" y="527.412" width="820" height="2" transform="rotate(-34.7596 3.15955 527.412)" fill="white"/>
<rect x="8.86089" y="535.627" width="820" height="2" transform="rotate(-34.7596 8.86089 535.627)" fill="white"/>
<rect x="14.5622" y="543.843" width="820" height="2" transform="rotate(-34.7596 14.5622 543.843)" fill="white"/>
<rect x="20.2636" y="552.058" width="820" height="2" transform="rotate(-34.7596 20.2636 552.058)" fill="white"/>
<rect x="25.9649" y="560.274" width="820" height="2" transform="rotate(-34.7596 25.9649 560.274)" fill="white"/>
<rect x="31.6663" y="568.49" width="820" height="2" transform="rotate(-34.7596 31.6663 568.49)" fill="white"/>
<rect x="37.3676" y="576.705" width="820" height="2" transform="rotate(-34.7596 37.3676 576.705)" fill="white"/>
<rect x="43.0689" y="584.921" width="820" height="2" transform="rotate(-34.7596 43.0689 584.921)" fill="white"/>
<rect x="48.7703" y="593.136" width="820" height="2" transform="rotate(-34.7596 48.7703 593.136)" fill="white"/>
<rect x="54.4716" y="601.352" width="820" height="2" transform="rotate(-34.7596 54.4716 601.352)" fill="white"/>
<rect x="60.173" y="609.567" width="820" height="2" transform="rotate(-34.7596 60.173 609.567)" fill="white"/>
<rect x="65.8743" y="617.783" width="820" height="2" transform="rotate(-34.7596 65.8743 617.783)" fill="white"/>
<rect x="71.5757" y="625.998" width="820" height="2" transform="rotate(-34.7596 71.5757 625.998)" fill="white"/>
<rect x="77.277" y="634.214" width="820" height="2" transform="rotate(-34.7596 77.277 634.214)" fill="white"/>
<rect x="82.9783" y="642.429" width="820" height="2" transform="rotate(-34.7596 82.9783 642.429)" fill="white"/>
<rect x="88.6797" y="650.645" width="820" height="2" transform="rotate(-34.7596 88.6797 650.645)" fill="white"/>
<rect x="94.381" y="658.86" width="820" height="2" transform="rotate(-34.7596 94.381 658.86)" fill="white"/>
<rect x="100.082" y="667.076" width="820" height="2" transform="rotate(-34.7596 100.082 667.076)" fill="white"/>
<rect x="105.784" y="675.291" width="820" height="2" transform="rotate(-34.7596 105.784 675.291)" fill="white"/>
<rect x="111.485" y="683.507" width="820" height="2" transform="rotate(-34.7596 111.485 683.507)" fill="white"/>
<rect x="117.186" y="691.722" width="820" height="2" transform="rotate(-34.7596 117.186 691.722)" fill="white"/>
<rect x="122.888" y="699.938" width="820" height="2" transform="rotate(-34.7596 122.888 699.938)" fill="white"/>
<rect x="128.589" y="708.153" width="820" height="2" transform="rotate(-34.7596 128.589 708.153)" fill="white"/>
</g>
</svg>
