<svg width="95" height="133" viewBox="0 0 95 133" fill="none" xmlns="http://www.w3.org/2000/svg">
<path d="M94.1875 108.969V132.062H85.75V108.969V108.968C85.7423 102.581 83.2015 96.4568 78.6848 91.9402C74.1682 87.4235 68.0444 84.8827 61.6568 84.875H61.6562H33.3438H33.3432C26.9556 84.8827 20.8319 87.4235 16.3152 91.9402C11.7985 96.4568 9.25765 102.581 9.25 108.968V108.969V132.062H0.8125V108.969C0.822416 100.344 4.25302 92.0754 10.3517 85.9767C16.4505 79.878 24.7194 76.4473 33.3443 76.4375H61.6557C70.2806 76.4473 78.5495 79.878 84.6483 85.9767C90.747 92.0755 94.1777 100.344 94.1875 108.969ZM47.5004 9.375H47.5C34.2143 9.375 23.4062 20.183 23.4062 33.4688C23.4062 46.5874 33.9442 57.2903 47 57.5574V65.9962C29.2914 65.7281 14.9688 51.24 14.9688 33.4688C14.9688 15.5305 29.5618 0.9375 47.5 0.9375C56.572 0.9375 65.2593 4.74667 71.4089 11.4098L65.1219 17.0386C62.9247 14.6852 60.2776 12.794 57.3355 11.4781C54.2412 10.0941 50.8901 9.37747 47.5004 9.375ZM76.3125 38.1875V19.8125H84.75V38.1875C84.75 48.3209 76.5084 56.5625 66.375 56.5625H61.6562C60.5374 56.5625 59.4643 56.118 58.6731 55.3269C57.882 54.5357 57.4375 53.4626 57.4375 52.3438C57.4375 51.2249 57.882 50.1518 58.6731 49.3606C59.4643 48.5695 60.5374 48.125 61.6562 48.125H66.375C71.8559 48.125 76.3125 43.6684 76.3125 38.1875Z" fill="black" stroke="black"/>
</svg>
