<svg width="132" height="123" viewBox="0 0 132 123" fill="none" xmlns="http://www.w3.org/2000/svg">
<path d="M122.25 61.6875H75.375C72.8894 61.69 70.5062 62.6785 68.7486 64.4361C66.991 66.1937 66.0025 68.5769 66 71.0625V99.1875C66.0025 101.673 66.991 104.056 68.7486 105.814C70.5062 107.572 72.8894 108.56 75.375 108.562H94.125V99.1875H75.375V71.0625H122.25V99.1875H110.367L98.2078 117.422L106.008 122.625L115.383 108.562H122.25C124.736 108.56 127.119 107.572 128.876 105.814C130.634 104.056 131.623 101.673 131.625 99.1875V71.0625C131.623 68.5769 130.634 66.1937 128.876 64.4361C127.119 62.6785 124.736 61.69 122.25 61.6875ZM31.6266 95.0109L35.6625 90.9703C36.2033 90.4297 36.8909 90.0598 37.6401 89.9065C38.3892 89.7532 39.1669 89.8232 39.8766 90.1078L44.7984 92.0766C45.5221 92.3667 46.1424 92.8669 46.5793 93.5127C47.0163 94.1585 47.2498 94.9203 47.25 95.7V104.644C47.2514 105.176 47.1442 105.702 46.935 106.191C46.7257 106.68 46.4187 107.121 46.0329 107.487C45.6471 107.853 45.1906 108.136 44.6914 108.32C44.1921 108.503 43.6607 108.582 43.1297 108.553C8.65781 106.411 1.69219 77.2125 0.403125 66.0281C0.341001 65.4818 0.395106 64.9285 0.561893 64.4045C0.728679 63.8806 1.00438 63.3978 1.37089 62.9879C1.73741 62.578 2.18645 62.2503 2.68857 62.0261C3.19068 61.802 3.73452 61.6866 4.28438 61.6875H13.0688C13.8497 61.6877 14.6126 61.9218 15.2592 62.3596C15.9059 62.7974 16.4066 63.4188 16.6969 64.1437L18.6656 69.0656C18.9493 69.7747 19.0187 70.5514 18.8654 71.2996C18.7121 72.0478 18.3428 72.7346 17.8031 73.275L13.7625 77.3109C14.4642 81.7795 16.5755 85.9069 19.7883 89.091C23.001 92.2751 27.1519 94.3493 31.6266 95.0109ZM89.4375 24.1875H122.25V33.5625H89.4375V24.1875ZM89.4375 5.4375H131.625V14.8125H89.4375V5.4375ZM70.6875 10.125L56.625 20.4375V10.125C56.6225 7.63936 55.634 5.25623 53.8764 3.49862C52.1188 1.741 49.7356 0.752482 47.25 0.75H9.75C7.26436 0.752482 4.88123 1.741 3.12362 3.49862C1.366 5.25623 0.377482 7.63936 0.375 10.125V38.25C0.377482 40.7356 1.366 43.1188 3.12362 44.8764C4.88123 46.634 7.26436 47.6225 9.75 47.625H47.25C49.7356 47.6225 52.1188 46.634 53.8764 44.8764C55.634 43.1188 56.6225 40.7356 56.625 38.25V27.9375L70.6875 38.25V10.125ZM9.75 38.25V10.125H47.25V38.25H9.75Z" fill="black"/>
</svg>
